<svg width="383" height="553" viewBox="0 0 383 553" fill="none" xmlns="http://www.w3.org/2000/svg">
<mask id="path-1-outside-1_2_32" maskUnits="userSpaceOnUse" x="57.312" y="110.269" width="281.352" height="350.687" fill="black">
<rect fill="white" x="57.312" y="110.269" width="281.352" height="350.687"/>
<path d="M117.089 459.658L59.2964 153.798L162.644 134.27C186.539 129.755 206.925 130.131 223.8 135.398C240.657 140.566 254.105 149.523 264.144 162.268C274.183 175.014 280.905 190.398 284.31 208.419C287.715 226.44 287.051 243.116 282.317 258.447C277.583 273.778 268.352 286.866 254.624 297.709C240.877 308.453 222.155 316.064 198.459 320.541L114.825 336.344L108.504 302.89L190.943 287.313C207.271 284.228 219.962 279.355 229.016 272.695C238.169 266.016 244.157 257.872 246.982 248.264C249.888 238.537 250.184 227.551 247.87 215.304C245.556 203.058 241.243 192.788 234.933 184.493C228.622 176.199 219.968 170.512 208.972 167.434C197.956 164.257 184.185 164.229 167.657 167.352L102.542 179.656L154.127 452.66L117.089 459.658ZM235.097 295.057L336.329 418.233L293.317 426.36L193.28 302.958L235.097 295.057Z"/>
</mask>
<path d="M117.089 459.658L116.106 459.844L116.292 460.827L117.275 460.641L117.089 459.658ZM59.2964 153.798L59.1107 152.815L58.1281 153.001L58.3138 153.983L59.2964 153.798ZM223.8 135.398L223.502 136.353L223.507 136.354L223.8 135.398ZM264.144 162.268L263.358 162.887L263.358 162.887L264.144 162.268ZM282.317 258.447L281.361 258.152L281.361 258.152L282.317 258.447ZM254.624 297.709L255.239 298.497L255.243 298.494L254.624 297.709ZM114.825 336.344L113.842 336.529L114.028 337.512L115.011 337.326L114.825 336.344ZM108.504 302.89L108.318 301.908L107.335 302.093L107.521 303.076L108.504 302.89ZM229.016 272.695L228.426 271.887L228.423 271.889L229.016 272.695ZM246.982 248.264L246.024 247.978L246.023 247.982L246.982 248.264ZM208.972 167.434L208.695 168.395L208.702 168.397L208.972 167.434ZM102.542 179.656L102.357 178.673L101.374 178.859L101.56 179.841L102.542 179.656ZM154.127 452.66L154.313 453.643L155.295 453.457L155.109 452.474L154.127 452.66ZM235.097 295.057L235.87 294.422L235.493 293.964L234.911 294.074L235.097 295.057ZM336.329 418.233L336.515 419.215L338.173 418.902L337.102 417.598L336.329 418.233ZM293.317 426.36L292.541 426.99L292.916 427.453L293.503 427.343L293.317 426.36ZM193.28 302.958L193.094 301.976L191.448 302.287L192.503 303.588L193.28 302.958ZM118.072 459.473L60.279 153.612L58.3138 153.983L116.106 459.844L118.072 459.473ZM59.4821 154.78L162.83 135.253L162.458 133.288L59.1107 152.815L59.4821 154.78ZM162.83 135.253C186.621 130.757 206.831 131.149 223.502 136.353L224.098 134.444C207.018 129.113 186.457 128.753 162.458 133.288L162.83 135.253ZM223.507 136.354C240.187 141.468 253.456 150.315 263.358 162.887L264.929 161.65C254.753 148.73 241.127 139.664 224.093 134.442L223.507 136.354ZM263.358 162.887C273.286 175.491 279.948 190.721 283.328 208.605L285.293 208.233C281.862 190.075 275.08 174.538 264.929 161.65L263.358 162.887ZM283.328 208.605C286.707 226.489 286.041 242.998 281.361 258.152L283.272 258.742C288.061 243.235 288.724 226.391 285.293 208.233L283.328 208.605ZM281.361 258.152C276.693 273.272 267.588 286.195 254.004 296.924L255.243 298.494C269.116 287.537 278.473 274.284 283.272 258.742L281.361 258.152ZM254.008 296.921C240.425 307.537 221.869 315.1 198.273 319.559L198.644 321.524C222.441 317.027 241.328 309.37 255.239 298.497L254.008 296.921ZM198.273 319.559L114.639 335.361L115.011 337.326L198.644 321.524L198.273 319.559ZM115.807 336.158L109.486 302.705L107.521 303.076L113.842 336.529L115.807 336.158ZM108.689 303.873L191.128 288.296L190.757 286.331L108.318 301.908L108.689 303.873ZM191.128 288.296C207.539 285.195 220.39 280.282 229.608 273.5L228.423 271.889C219.534 278.429 207.003 283.261 190.757 286.331L191.128 288.296ZM229.605 273.503C238.911 266.712 245.047 258.393 247.942 248.546L246.023 247.982C243.268 257.351 237.426 265.32 228.426 271.887L229.605 273.503ZM247.94 248.55C250.901 238.639 251.189 227.487 248.852 215.119L246.887 215.49C249.178 227.615 248.875 238.435 246.024 247.978L247.94 248.55ZM248.852 215.119C246.515 202.749 242.15 192.328 235.729 183.888L234.137 185.099C240.337 193.248 244.596 203.367 246.887 215.49L248.852 215.119ZM235.729 183.888C229.273 175.403 220.426 169.602 209.241 166.471L208.702 168.397C219.51 171.423 227.971 176.994 234.137 185.099L235.729 183.888ZM209.249 166.473C198.029 163.237 184.087 163.23 167.472 166.369L167.843 168.335C184.283 165.228 197.883 165.276 208.695 168.395L209.249 166.473ZM167.472 166.369L102.357 178.673L102.728 180.638L167.843 168.335L167.472 166.369ZM101.56 179.841L153.144 452.846L155.109 452.474L103.525 179.47L101.56 179.841ZM153.941 451.677L116.903 458.676L117.275 460.641L154.313 453.643L153.941 451.677ZM234.324 295.692L335.556 418.868L337.102 417.598L235.87 294.422L234.324 295.692ZM336.143 417.25L293.132 425.377L293.503 427.343L336.515 419.215L336.143 417.25ZM294.094 425.73L194.057 302.329L192.503 303.588L292.541 426.99L294.094 425.73ZM193.466 303.941L235.283 296.04L234.911 294.074L193.094 301.976L193.466 303.941Z" fill="black" mask="url(#path-1-outside-1_2_32)"/>
<mask id="path-3-outside-2_2_32" maskUnits="userSpaceOnUse" x="54.312" y="102.269" width="281.352" height="350.687" fill="black">
<rect fill="white" x="54.312" y="102.269" width="281.352" height="350.687"/>
<path d="M114.089 451.658L56.2964 145.798L159.644 126.27C183.539 121.755 203.925 122.131 220.8 127.398C237.657 132.566 251.105 141.523 261.144 154.268C271.183 167.014 277.905 182.398 281.31 200.419C284.715 218.44 284.051 235.116 279.317 250.447C274.583 265.778 265.352 278.866 251.624 289.709C237.877 300.453 219.155 308.064 195.459 312.541L111.825 328.344L105.504 294.89L187.943 279.313C204.271 276.228 216.962 271.355 226.016 264.695C235.169 258.016 241.157 249.872 243.982 240.264C246.888 230.537 247.184 219.551 244.87 207.304C242.556 195.058 238.243 184.788 231.933 176.493C225.622 168.199 216.968 162.512 205.972 159.434C194.956 156.257 181.185 156.229 164.657 159.352L99.5424 171.656L151.127 444.66L114.089 451.658ZM232.097 287.057L333.329 410.233L290.317 418.36L190.28 294.958L232.097 287.057Z"/>
</mask>
<path d="M114.089 451.658L113.106 451.844L113.292 452.827L114.275 452.641L114.089 451.658ZM56.2964 145.798L56.1107 144.815L55.1281 145.001L55.3138 145.983L56.2964 145.798ZM220.8 127.398L220.502 128.353L220.507 128.354L220.8 127.398ZM261.144 154.268L260.358 154.887L260.358 154.887L261.144 154.268ZM279.317 250.447L278.361 250.152L278.361 250.152L279.317 250.447ZM251.624 289.709L252.239 290.497L252.243 290.494L251.624 289.709ZM111.825 328.344L110.842 328.529L111.028 329.512L112.011 329.326L111.825 328.344ZM105.504 294.89L105.318 293.908L104.335 294.093L104.521 295.076L105.504 294.89ZM226.016 264.695L225.426 263.887L225.423 263.889L226.016 264.695ZM243.982 240.264L243.024 239.978L243.023 239.982L243.982 240.264ZM205.972 159.434L205.695 160.395L205.702 160.397L205.972 159.434ZM99.5424 171.656L99.3567 170.673L98.3741 170.859L98.5598 171.841L99.5424 171.656ZM151.127 444.66L151.313 445.643L152.295 445.457L152.109 444.474L151.127 444.66ZM232.097 287.057L232.87 286.422L232.493 285.964L231.911 286.074L232.097 287.057ZM333.329 410.233L333.515 411.215L335.173 410.902L334.102 409.598L333.329 410.233ZM290.317 418.36L289.541 418.99L289.916 419.453L290.503 419.343L290.317 418.36ZM190.28 294.958L190.094 293.976L188.448 294.287L189.503 295.588L190.28 294.958ZM115.072 451.473L57.279 145.612L55.3138 145.983L113.106 451.844L115.072 451.473ZM56.4821 146.78L159.83 127.253L159.458 125.288L56.1107 144.815L56.4821 146.78ZM159.83 127.253C183.621 122.757 203.831 123.149 220.502 128.353L221.098 126.444C204.018 121.113 183.457 120.753 159.458 125.288L159.83 127.253ZM220.507 128.354C237.187 133.468 250.456 142.315 260.358 154.887L261.929 153.65C251.753 140.73 238.127 131.664 221.093 126.442L220.507 128.354ZM260.358 154.887C270.286 167.491 276.948 182.721 280.328 200.605L282.293 200.233C278.862 182.075 272.08 166.538 261.929 153.65L260.358 154.887ZM280.328 200.605C283.707 218.489 283.041 234.998 278.361 250.152L280.272 250.742C285.061 235.235 285.724 218.391 282.293 200.233L280.328 200.605ZM278.361 250.152C273.693 265.272 264.588 278.195 251.004 288.924L252.243 290.494C266.116 279.537 275.473 266.284 280.272 250.742L278.361 250.152ZM251.008 288.921C237.425 299.537 218.869 307.1 195.273 311.559L195.644 313.524C219.441 309.027 238.328 301.37 252.239 290.497L251.008 288.921ZM195.273 311.559L111.639 327.361L112.011 329.326L195.644 313.524L195.273 311.559ZM112.807 328.158L106.486 294.705L104.521 295.076L110.842 328.529L112.807 328.158ZM105.689 295.873L188.128 280.296L187.757 278.331L105.318 293.908L105.689 295.873ZM188.128 280.296C204.539 277.195 217.39 272.282 226.608 265.5L225.423 263.889C216.534 270.429 204.003 275.261 187.757 278.331L188.128 280.296ZM226.605 265.503C235.911 258.712 242.047 250.393 244.942 240.546L243.023 239.982C240.268 249.351 234.426 257.32 225.426 263.887L226.605 265.503ZM244.94 240.55C247.901 230.639 248.189 219.487 245.852 207.119L243.887 207.49C246.178 219.615 245.875 230.435 243.024 239.978L244.94 240.55ZM245.852 207.119C243.515 194.749 239.15 184.328 232.729 175.888L231.137 177.099C237.337 185.248 241.596 195.367 243.887 207.49L245.852 207.119ZM232.729 175.888C226.273 167.403 217.426 161.602 206.241 158.471L205.702 160.397C216.51 163.423 224.971 168.994 231.137 177.099L232.729 175.888ZM206.249 158.473C195.029 155.237 181.087 155.23 164.472 158.369L164.843 160.335C181.283 157.228 194.883 157.276 205.695 160.395L206.249 158.473ZM164.472 158.369L99.3567 170.673L99.7281 172.638L164.843 160.335L164.472 158.369ZM98.5598 171.841L150.144 444.846L152.109 444.474L100.525 171.47L98.5598 171.841ZM150.941 443.677L113.903 450.676L114.275 452.641L151.313 445.643L150.941 443.677ZM231.324 287.692L332.556 410.868L334.102 409.598L232.87 286.422L231.324 287.692ZM333.143 409.25L290.132 417.377L290.503 419.343L333.515 411.215L333.143 409.25ZM291.094 417.73L191.057 294.329L189.503 295.588L289.541 418.99L291.094 417.73ZM190.466 295.941L232.283 288.04L231.911 286.074L190.094 293.976L190.466 295.941Z" fill="black" mask="url(#path-3-outside-2_2_32)"/>
</svg>
