<svg width="383" height="553" viewBox="0 0 383 553" fill="none" xmlns="http://www.w3.org/2000/svg">
<mask id="path-1-outside-1_2_32" maskUnits="userSpaceOnUse" x="54.312" y="102.269" width="281.352" height="350.687" fill="black">
<rect fill="white" x="54.312" y="102.269" width="281.352" height="350.687"/>
<path d="M114.089 451.658L56.2964 145.798L159.644 126.27C183.539 121.755 203.925 122.131 220.8 127.398C237.657 132.566 251.105 141.523 261.144 154.268C271.183 167.014 277.905 182.398 281.31 200.419C284.715 218.44 284.051 235.116 279.317 250.447C274.583 265.778 265.352 278.866 251.624 289.709C237.877 300.453 219.155 308.064 195.459 312.541L111.825 328.344L105.504 294.89L187.943 279.313C204.271 276.228 216.962 271.355 226.016 264.695C235.169 258.016 241.157 249.872 243.982 240.264C246.888 230.537 247.184 219.551 244.87 207.304C242.556 195.058 238.243 184.788 231.933 176.493C225.622 168.199 216.968 162.512 205.972 159.434C194.956 156.257 181.185 156.229 164.657 159.352L99.5424 171.656L151.127 444.66L114.089 451.658ZM232.097 287.057L333.329 410.233L290.317 418.36L190.28 294.958L232.097 287.057Z"/>
</mask>
<path d="M114.089 451.658L113.106 451.844L113.292 452.827L114.275 452.641L114.089 451.658ZM56.2964 145.798L56.1107 144.815L55.1281 145.001L55.3138 145.983L56.2964 145.798ZM220.8 127.398L220.502 128.353L220.507 128.354L220.8 127.398ZM261.144 154.268L260.358 154.887L260.358 154.887L261.144 154.268ZM279.317 250.447L278.361 250.152L278.361 250.152L279.317 250.447ZM251.624 289.709L252.239 290.497L252.243 290.494L251.624 289.709ZM111.825 328.344L110.842 328.529L111.028 329.512L112.011 329.326L111.825 328.344ZM105.504 294.89L105.318 293.908L104.335 294.093L104.521 295.076L105.504 294.89ZM226.016 264.695L225.426 263.887L225.423 263.889L226.016 264.695ZM243.982 240.264L243.024 239.978L243.023 239.982L243.982 240.264ZM205.972 159.434L205.695 160.395L205.702 160.397L205.972 159.434ZM99.5424 171.656L99.3567 170.673L98.3741 170.859L98.5598 171.841L99.5424 171.656ZM151.127 444.66L151.313 445.643L152.295 445.457L152.109 444.474L151.127 444.66ZM232.097 287.057L232.87 286.422L232.493 285.964L231.911 286.074L232.097 287.057ZM333.329 410.233L333.515 411.215L335.173 410.902L334.102 409.598L333.329 410.233ZM290.317 418.36L289.541 418.99L289.916 419.453L290.503 419.343L290.317 418.36ZM190.28 294.958L190.094 293.976L188.448 294.287L189.503 295.588L190.28 294.958ZM115.072 451.473L57.279 145.612L55.3138 145.983L113.106 451.844L115.072 451.473ZM56.4821 146.78L159.83 127.253L159.458 125.288L56.1107 144.815L56.4821 146.78ZM159.83 127.253C183.621 122.757 203.831 123.149 220.502 128.353L221.098 126.444C204.018 121.113 183.457 120.753 159.458 125.288L159.83 127.253ZM220.507 128.354C237.187 133.468 250.456 142.315 260.358 154.887L261.929 153.65C251.753 140.73 238.127 131.664 221.093 126.442L220.507 128.354ZM260.358 154.887C270.286 167.491 276.948 182.721 280.328 200.605L282.293 200.233C278.862 182.075 272.08 166.538 261.929 153.65L260.358 154.887ZM280.328 200.605C283.707 218.489 283.041 234.998 278.361 250.152L280.272 250.742C285.061 235.235 285.724 218.391 282.293 200.233L280.328 200.605ZM278.361 250.152C273.693 265.272 264.588 278.195 251.004 288.924L252.243 290.494C266.116 279.537 275.473 266.284 280.272 250.742L278.361 250.152ZM251.008 288.921C237.425 299.537 218.869 307.1 195.273 311.559L195.644 313.524C219.441 309.027 238.328 301.37 252.239 290.497L251.008 288.921ZM195.273 311.559L111.639 327.361L112.011 329.326L195.644 313.524L195.273 311.559ZM112.807 328.158L106.486 294.705L104.521 295.076L110.842 328.529L112.807 328.158ZM105.689 295.873L188.128 280.296L187.757 278.331L105.318 293.908L105.689 295.873ZM188.128 280.296C204.539 277.195 217.39 272.282 226.608 265.5L225.423 263.889C216.534 270.429 204.003 275.261 187.757 278.331L188.128 280.296ZM226.605 265.503C235.911 258.712 242.047 250.393 244.942 240.546L243.023 239.982C240.268 249.351 234.426 257.32 225.426 263.887L226.605 265.503ZM244.94 240.55C247.901 230.639 248.189 219.487 245.852 207.119L243.887 207.49C246.178 219.615 245.875 230.435 243.024 239.978L244.94 240.55ZM245.852 207.119C243.515 194.749 239.15 184.328 232.729 175.888L231.137 177.099C237.337 185.248 241.596 195.367 243.887 207.49L245.852 207.119ZM232.729 175.888C226.273 167.403 217.426 161.602 206.241 158.471L205.702 160.397C216.51 163.423 224.971 168.994 231.137 177.099L232.729 175.888ZM206.249 158.473C195.029 155.237 181.087 155.23 164.472 158.369L164.843 160.335C181.283 157.228 194.883 157.276 205.695 160.395L206.249 158.473ZM164.472 158.369L99.3567 170.673L99.7281 172.638L164.843 160.335L164.472 158.369ZM98.5598 171.841L150.144 444.846L152.109 444.474L100.525 171.47L98.5598 171.841ZM150.941 443.677L113.903 450.676L114.275 452.641L151.313 445.643L150.941 443.677ZM231.324 287.692L332.556 410.868L334.102 409.598L232.87 286.422L231.324 287.692ZM333.143 409.25L290.132 417.377L290.503 419.343L333.515 411.215L333.143 409.25ZM291.094 417.73L191.057 294.329L189.503 295.588L289.541 418.99L291.094 417.73ZM190.466 295.941L232.283 288.04L231.911 286.074L190.094 293.976L190.466 295.941Z" fill="black" style="mix-blend-mode:overlay" mask="url(#path-1-outside-1_2_32)"/>
<path d="M115.5 452.5L117 460.5L155 452.5L132.5 334" stroke="black"/>
<path d="M131 334.5L205.5 320L293.5 427L337.5 418.5L331 411.5" stroke="black"/>
<path d="M246.5 303.5C290.328 270.462 292.863 243.398 279 188" stroke="black"/>
</svg>
